<svg width="14" height="14" viewBox="0 0 14 14" fill="none" xmlns="http://www.w3.org/2000/svg">
<path d="M5 0H1C0.447715 0 0 0.447715 0 1V5C0 5.55228 0.447715 6 1 6H5C5.55228 6 6 5.55228 6 5V1C6 0.447715 5.55228 0 5 0Z" />
<path d="M13 0H9C8.44772 0 8 0.447715 8 1V5C8 5.55228 8.44772 6 9 6H13C13.5523 6 14 5.55228 14 5V1C14 0.447715 13.5523 0 13 0Z" />
<path d="M5 8H1C0.447715 8 0 8.44772 0 9V13C0 13.5523 0.447715 14 1 14H5C5.55228 14 6 13.5523 6 13V9C6 8.44772 5.55228 8 5 8Z" />
<path d="M13 8H9C8.44772 8 8 8.44772 8 9V13C8 13.5523 8.44772 14 9 14H13C13.5523 14 14 13.5523 14 13V9C14 8.44772 13.5523 8 13 8Z" />
</svg>
